<svg id="ff0d6afe-be66-43a8-b802-256be10b67bb" data-name="Layer 1" xmlns="http://www.w3.org/2000/svg" viewBox="0 0 1428.8 604.2"><title>main-logo</title><g id="edc19966-3941-400c-828c-f07655e603f4" data-name="Play"><path d="M1441.1,268.5l-357.2-222a70.5,70.5,0,0,0-107.6,60.8V549.6a71.7,71.7,0,0,0,107.6,60.9l357.2-221.2a70.4,70.4,0,0,0,22.8-97,69,69,0,0,0-22.8-22.8Z" transform="translate(-45.7 -35.9)" fill="#c03"/></g><path d="M460.1,75.2h1.6c9.1,0,16,4.9,20.9,14.8a29.4,29.4,0,0,1,1.1,7.2V243.5c0,12.5,5.9,21,17.6,25.6a30.4,30.4,0,0,0,9.4,1.4h11.9a.5.5,0,0,1,.6.6v44.5a.5.5,0,0,1-.6.6h-15q-28.2,0-50.4-22.7Q438,272,438,246.6V97.2q0-13.5,14.7-20.7A24.6,24.6,0,0,1,460.1,75.2Z" transform="translate(-45.7 -35.9)" fill="#c03"/><path d="M652.5,75.5c8.8,0,15.7,4.5,20.7,13.3a22.2,22.2,0,0,1,2.1,9V99q0,11.1-12.9,21.9c-.1.3-8.4,8.8-25,25.3h7.5q28.1,0,50.6,22.7c12.6,14.3,18.9,30,18.9,46.9v31.6c0,5.5,2.7,11,8.2,16.4s11,6.7,18.6,6.7h11.9c.2,0,.4.2.4.6v44.5c0,.4-.2.6-.4.6H738q-24.9,0-46.4-18.6h-.2q-21.6,18.6-46.5,18.6H519.5a.5.5,0,0,1-.6-.6V271.1a.5.5,0,0,1,.6-.6H641.7c12.7,0,21.3-6,25.8-17.8a15.8,15.8,0,0,0,1-5.3V215.2c0-5.6-2.7-11.1-8.2-16.6s-11-6.6-18.6-6.6H581.8q-14.7,0-21.3-15.3a20.1,20.1,0,0,1-1.2-7.2v-.6c0-7.8,4.4-15.4,13.1-22.7q66.3-66.7,68.2-67.5A28.3,28.3,0,0,1,652.5,75.5ZM622.8,54.1h.2c6,0,9.8,3.3,11.5,9.9,0,.2.1.7.2,1.6,0,4.2-3.2,8.9-9.8,14.2q-66.3,66.9-67.7,67.4a11.6,11.6,0,0,1-6.1,2c-5.3,0-9-3-11.1-8.8a13.6,13.6,0,0,1-.2-2v-1.5c0-3.8,3-8.2,9-13.1q67.5-67.9,68.3-68.2A14.2,14.2,0,0,1,622.8,54.1Z" transform="translate(-45.7 -35.9)" fill="#c03"/><path d="M858.5,146.1h28.8q27.9,0,50.3,22.6c12.8,14.3,19.2,30,19.2,46.9v31q0,28.2-22.7,50.4-21.5,19.2-46.8,19.2H858.5q-25.2,0-46.6-18.8-21.7,18.8-46.9,18.8H750.1c-.3,0-.5-.2-.5-.6V271.1c0-.4.2-.6.5-.6h12c12.7,0,21.3-6.2,25.7-18.4a29.3,29.3,0,0,0,1.2-8.6V215.6c0-18.8,7.5-35.6,22.5-50.6Q833,146.1,858.5,146.1Zm-23.8,72.6v24.8c0,12.5,5.8,21,17.4,25.6a30,30,0,0,0,9.4,1.4h22.6c12.8,0,21.4-6.2,26-18.4a33.3,33.3,0,0,0,1-8.6V218.7c0-12.9-6.1-21.5-18.4-26a39.8,39.8,0,0,0-8.6-.9H861.5c-12.4,0-20.9,5.8-25.6,17.5A34,34,0,0,0,834.7,218.7Z" transform="translate(-45.7 -35.9)" fill="#c03"/><path d="M215.6,398.9c9,0,15.1,1.1,18.2,3.1q12.4,3,26.7,14.7c15.9,15.2,23.9,32.5,23.9,51.7v28c0,12.5,5.8,21,17.6,25.6a29.4,29.4,0,0,0,9.3,1.3h11.9a.5.5,0,0,1,.6.6v44.5a.5.5,0,0,1-.6.6h-15q-25.2,0-46.7-18.7-21.5,18.8-46.7,18.7H186.1q-28,0-50.6-22.6-18.9-21.6-18.9-46.9V468.4a67.9,67.9,0,0,1,4.5-23.6h-2.7c-12.5,0-21.1,5.9-25.6,17.6a29.5,29.5,0,0,0-1.4,9.4V618c0,9.2-4.9,16.1-14.6,20.8a25.7,25.7,0,0,1-7.5,1.3H67.8c-9.1,0-16-4.9-20.7-14.6a26.2,26.2,0,0,1-1.4-7.5V468.6q0-27.9,22.7-50.4,21.4-19.1,46.8-19.1h12.7Zm-53.3,72.7v24.8c0,12.5,5.8,21,17.4,25.6a31.4,31.4,0,0,0,9.6,1.3h22.4c12.9,0,21.6-6.1,26-18.3a38.3,38.3,0,0,0,1-8.6V471.6c0-12.7-6-21.3-17.8-25.8a15.8,15.8,0,0,0-5.3-1H185.4c-5.5,0-11,2.7-16.5,8.2S162.3,464,162.3,471.6Z" transform="translate(-45.7 -35.9)" fill="#fafafa"/><path d="M381.3,328h1.3c9.1,0,16.1,5,20.9,14.9a23.3,23.3,0,0,1,1.4,7.2V496.4c0,12.5,5.8,21,17.4,25.6a29.4,29.4,0,0,0,9.3,1.3h12c.3,0,.5.2.5.6v44.5c0,.4-.2.6-.5.6H428.7c-16.8,0-32.3-6.2-46.7-18.7q-21.6,18.8-46.8,18.7H320.3a.5.5,0,0,1-.6-.6V523.9a.5.5,0,0,1,.6-.6h11.9q19.2,0,25.8-18.3a29.3,29.3,0,0,0,1.2-8.6V350.1c0-9,4.9-15.9,14.6-20.7A26.2,26.2,0,0,1,381.3,328Z" transform="translate(-45.7 -35.9)" fill="#fafafa"/><path d="M501.4,398.9h2.1c8.7,0,15.5,4.8,20.3,14.3a19.2,19.2,0,0,1,1.6,7.6v75.6c0,12.5,5.8,21,17.4,25.6a29.4,29.4,0,0,0,9.3,1.3h12c.4,0,.5.2.5.6v44.5c0,.4-.1.6-.5.6H549.2c-16.8,0-32.3-6.2-46.7-18.7q-21.6,18.8-46.8,18.7H440.8a.5.5,0,0,1-.6-.6V523.9a.5.5,0,0,1,.6-.6h11.9q19.2,0,25.8-18.3a29.3,29.3,0,0,0,1.2-8.6V420.8c0-8.7,4.7-15.5,14.1-20.3A19.2,19.2,0,0,1,501.4,398.9ZM479.7,594h46.1c9.9,0,17,5.1,21.5,15.3a22.6,22.6,0,0,1,1.1,7.4v.4c0,9.9-5,17-15.2,21.3a18.8,18.8,0,0,1-7.4,1.3H479.7c-9.9,0-17-5.1-21.3-15.2a18.8,18.8,0,0,1-1.4-7.4v-.4c0-9.9,5.1-17.1,15.3-21.5A20.1,20.1,0,0,1,479.7,594Z" transform="translate(-45.7 -35.9)" fill="#fafafa"/><path d="M669.7,398.9h28.7q28.1,0,50.4,22.7Q768,443.1,768,468.4v31.1q0,28.1-22.7,50.4Q723.9,569,698.4,569H561.3a.5.5,0,0,1-.6-.6V523.9a.5.5,0,0,1,.6-.6h43.4v-.2a67.1,67.1,0,0,1-4.5-23.6V468.4c0-18.7,7.5-35.6,22.5-50.5Q644.2,398.9,669.7,398.9Zm-23.8,72.7v24.8c0,12.5,5.8,21,17.4,25.6a29.7,29.7,0,0,0,9.4,1.3h22.6c12.8,0,21.4-6.1,26-18.3a38.3,38.3,0,0,0,1-8.6V471.6c0-12.9-6.2-21.6-18.4-26a34.4,34.4,0,0,0-8.6-1H672.7c-12.4,0-20.9,5.9-25.6,17.6A33,33,0,0,0,645.9,471.6ZM683.8,328h.4c9.9,0,17,5.1,21.5,15.2a23.7,23.7,0,0,1,1.1,7.5v.4c0,9.9-5,16.9-15.2,21.2a17.2,17.2,0,0,1-7.4,1.4h-.4c-9.9,0-17-5.1-21.3-15.2a18.8,18.8,0,0,1-1.4-7.4v-.4c0-9.9,5.1-17.1,15.3-21.5A20.1,20.1,0,0,1,683.8,328Z" transform="translate(-45.7 -35.9)" fill="#fafafa"/></svg>