<svg id="20456166-31e3-4523-9505-f1189abbc88f" data-name="Layer 1" xmlns="http://www.w3.org/2000/svg" viewBox="0 0 1440.1 374.9"><title>text-logo</title><path d="M213.1,123.9c10.1,0,17,1.2,20.5,3.5,9.3,2.2,19.4,7.7,30.1,16.5,17.8,17.2,26.8,36.6,26.8,58.2v31.5q0,21,19.8,28.8a33.2,33.2,0,0,0,10.5,1.5h13.4a.6.6,0,0,1,.7.7v50a.6.6,0,0,1-.7.7H317.3q-28.4,0-52.5-21.1-24.2,21.2-52.5,21.1H180q-31.6,0-57-25.5-21.3-24.2-21.3-52.7v-35a74.9,74.9,0,0,1,5.1-26.5h-3.1c-14.1,0-23.6,6.6-28.8,19.7a34.3,34.3,0,0,0-1.5,10.6V370.5c0,10.2-5.5,18-16.5,23.3a28.7,28.7,0,0,1-8.3,1.5H46.8c-10.3,0-18-5.5-23.3-16.5a28.7,28.7,0,0,1-1.5-8.3V202.4q0-31.5,25.5-56.7,24.2-21.6,52.7-21.6h14.3C143.2,124.1,176.1,124.1,213.1,123.9Zm-60,81.8v27.9c0,14,6.6,23.6,19.6,28.8a36.1,36.1,0,0,0,10.8,1.5h25.2c14.5,0,24.3-6.9,29.3-20.7a40.8,40.8,0,0,0,1.1-9.6V205.7c0-14.2-6.7-23.9-20-29a17.4,17.4,0,0,0-6-1.1h-34c-6.2,0-12.3,3-18.5,9.2S153.1,197.2,153.1,205.7Z" transform="translate(-22 -20.4)" fill="#c03"/><path d="M399.5,44.2H401c10.3,0,18.1,5.5,23.5,16.7A26.4,26.4,0,0,1,426,69V233.6c0,14,6.6,23.6,19.6,28.8a34.3,34.3,0,0,0,10.6,1.5h13.4c.4,0,.6.2.6.7v50c0,.5-.2.7-.6.7H452.9q-28.3,0-52.6-21.1-24.3,21.2-52.7,21.1H330.9a.6.6,0,0,1-.7-.7v-50a.6.6,0,0,1,.7-.7h13.4c14.4,0,24-6.9,29-20.7a32.3,32.3,0,0,0,1.3-9.6V69c0-10.1,5.5-17.9,16.5-23.3A28.7,28.7,0,0,1,399.5,44.2Z" transform="translate(-22 -20.4)" fill="#c03"/><path d="M534.6,123.9H537c9.8,0,17.4,5.4,22.9,16.1a24.3,24.3,0,0,1,1.7,8.5v85.1c0,14,6.5,23.6,19.6,28.8a34.1,34.1,0,0,0,10.5,1.5h13.4c.5,0,.7.2.7.7v50c0,.5-.2.7-.7.7H588.4q-28.4,0-52.5-21.1-24.3,21.2-52.7,21.1H466.5c-.5,0-.7-.2-.7-.7v-50c0-.5.2-.7.7-.7h13.4c14.3,0,24-6.9,29-20.7a32.3,32.3,0,0,0,1.3-9.6V148.5c0-9.8,5.3-17.4,15.8-22.8A22.9,22.9,0,0,1,534.6,123.9ZM510.2,343.4h51.9c11.1,0,19.1,5.7,24.1,17.2a23,23,0,0,1,1.3,8.3v.5c0,11.1-5.7,19.1-17.1,23.9a20.9,20.9,0,0,1-8.3,1.5H510.2c-11.1,0-19.1-5.7-23.9-17.1a19.2,19.2,0,0,1-1.6-8.3v-.5c0-11.1,5.7-19.2,17.2-24.1A22.9,22.9,0,0,1,510.2,343.4Z" transform="translate(-22 -20.4)" fill="#c03"/><path d="M724,123.9h32.3q31.4,0,56.7,25.5,21.4,24.2,21.5,52.7v35q0,31.7-25.5,56.7-24.2,21.4-52.7,21.5H602.1c-.5,0-.7-.2-.7-.7v-50c0-.5.2-.7.7-.7h48.7v-.2a78,78,0,0,1-5-26.6v-35q0-31.5,25.2-56.9C687.2,131,704.8,123.9,724,123.9Zm-26.8,81.8v27.9q0,21,19.5,28.8a34.3,34.3,0,0,0,10.6,1.5h25.5c14.3,0,24.1-6.9,29.2-20.7a40.8,40.8,0,0,0,1.1-9.6V205.7c0-14.5-6.9-24.3-20.6-29.3a43.7,43.7,0,0,0-9.7-1.1H727.3q-20.8,0-28.8,19.8A38,38,0,0,0,697.2,205.7ZM739.8,44.2h.5c11.1,0,19.1,5.7,24.1,17.1a23.2,23.2,0,0,1,1.3,8.4v.4c0,11.1-5.7,19.1-17.1,23.9a19.2,19.2,0,0,1-8.3,1.6h-.5c-11.1,0-19.1-5.7-23.9-17.2a19.2,19.2,0,0,1-1.6-8.3v-.4c0-11.2,5.7-19.2,17.2-24.2A23,23,0,0,1,739.8,44.2Z" transform="translate(-22 -20.4)" fill="#c03"/><path d="M903.3,44.2h1.8c10.2,0,18,5.5,23.5,16.7a33,33,0,0,1,1.3,8.1V233.6q0,21,19.8,28.8a33.7,33.7,0,0,0,10.5,1.5h13.4a.6.6,0,0,1,.7.7v50a.6.6,0,0,1-.7.7H956.7q-31.7,0-56.7-25.5c-14.4-16.1-21.5-33.7-21.5-52.7V69c0-10.1,5.5-17.9,16.4-23.3A29.9,29.9,0,0,1,903.3,44.2Z" transform="translate(-22 -20.4)" fill="#c03"/><path d="M1119.7,44.6c10,0,17.7,5,23.3,14.9a24.8,24.8,0,0,1,2.4,10.2V71c0,8.3-4.8,16.5-14.5,24.6-.1.4-9.5,9.9-28.1,28.5h8.4c21.1,0,40,8.5,56.9,25.5q21.3,24.2,21.3,52.8V238c0,6.1,3.1,12.3,9.2,18.4s12.4,7.5,20.9,7.5h13.4c.3,0,.4.2.4.7v50c0,.5-.1.7-.4.7H1216c-18.8,0-36.2-6.9-52.3-20.9h-.2c-16.2,14-33.6,20.9-52.3,20.9H970.1a.6.6,0,0,1-.7-.7v-50a.6.6,0,0,1,.7-.7h137.5c14.2,0,23.9-6.7,29-20a17.3,17.3,0,0,0,1.1-5.9V201.7c0-6.3-3-12.5-9.2-18.7s-12.4-7.4-20.9-7.4h-67.4c-11,0-19-5.8-24-17.2a24.6,24.6,0,0,1-1.3-8.1v-.7c0-8.8,4.9-17.2,14.7-25.5q74.6-75.1,76.7-76C1111.3,45.8,1115.8,44.6,1119.7,44.6Zm-33.4-24.2h.2c6.8,0,11.1,3.8,13,11.2,0,.2.1.8.2,1.8,0,4.7-3.6,10-11,16q-74.7,75.2-76.2,75.8a12.4,12.4,0,0,1-6.8,2.2c-6,0-10.2-3.3-12.5-9.8a8.9,8.9,0,0,1-.3-2.2v-1.8c0-4.2,3.4-9.2,10.2-14.7Q1079,22.4,1080,22.2A14.9,14.9,0,0,1,1086.3,20.4Z" transform="translate(-22 -20.4)" fill="#c03"/><path d="M1351.5,123.9h32.3q31.5,0,56.7,25.5,21.6,24.2,21.6,52.7v35q0,31.7-25.5,56.7-24.1,21.4-52.8,21.5h-32.3q-28.4,0-52.5-21.1-24.3,21.2-52.7,21.1h-16.7a.6.6,0,0,1-.7-.7v-50a.6.6,0,0,1,.7-.7H1243c14.3,0,24-6.9,29-20.7a32.3,32.3,0,0,0,1.3-9.6V202.1q0-31.5,25.3-56.9Q1322.8,123.9,1351.5,123.9Zm-26.8,81.8v27.9c0,14,6.5,23.6,19.6,28.8a34.1,34.1,0,0,0,10.5,1.5h25.5c14.4,0,24.1-6.9,29.2-20.7a36.2,36.2,0,0,0,1.1-9.6V205.7c0-14.5-6.8-24.3-20.6-29.3a43.7,43.7,0,0,0-9.7-1.1h-25.5q-20.8,0-28.8,19.8A42.1,42.1,0,0,0,1324.7,205.7Z" transform="translate(-22 -20.4)" fill="#c03"/></svg>